<svg width="61" height="61" viewBox="0 0 61 61" fill="none" xmlns="http://www.w3.org/2000/svg">
<g clip-path="url(#clip0_116_21)">
<path d="M55.2798 53.3739H5.71838C2.56003 53.3739 -0.000244141 50.8136 -0.000244141 47.6552V13.3435C-0.000244141 10.1852 2.56003 7.62488 5.71838 7.62488H55.2798C58.4381 7.62488 60.9984 10.1852 60.9984 13.3435V47.6552C60.9984 50.8136 58.4381 53.3739 55.2798 53.3739ZM13.3432 14.2966C9.65851 14.2966 6.67148 17.2836 6.67148 20.9683C6.67148 24.653 9.65851 27.6401 13.3432 27.6401C17.0279 27.6401 20.0149 24.653 20.0149 20.9683C20.0149 17.2836 17.0279 14.2966 13.3432 14.2966ZM7.62459 45.749H53.3736V32.4056L42.9472 21.9792C42.3889 21.4209 41.4837 21.4209 40.9253 21.9792L24.7805 38.1242L18.1665 31.5103C17.6082 30.952 16.703 30.952 16.1446 31.5103L7.62459 40.0304V45.749Z" fill="#BDBDBD"/>
</g>
<defs>
<clipPath id="clip0_116_21">
<rect width="60.9987" height="60.9987" rx="14" fill="white"/>
</clipPath>
</defs>
</svg>
