<svg width="20" height="20" viewBox="0 0 20 20" fill="none" xmlns="http://www.w3.org/2000/svg">
<path d="M9.98281 11.9982L18.2316 6.8427L9.98281 2.01532L1.73408 6.8427L9.98281 11.9982ZM19.9657 7.03017V17.013C19.9657 17.5442 19.7626 18.0129 19.3564 18.4191C18.9814 18.8252 18.5284 19.0283 17.9972 19.0283H1.96842C1.43725 19.0283 0.968571 18.8252 0.562383 18.4191C0.187441 18.0129 -3.03686e-05 17.5442 -3.03686e-05 17.013V7.03017C-3.03686e-05 6.24904 0.312422 5.67101 0.937326 5.29607L9.98281 1.75834e-06L19.0283 5.29607C19.6532 5.67101 19.9657 6.24904 19.9657 7.03017Z" fill="white" fill-opacity="0.87"/>
</svg>
