<svg width="20" height="14" viewBox="0 0 20 14" fill="none" xmlns="http://www.w3.org/2000/svg">
<path d="M6.98327 7.96753C7.67067 7.96753 8.46742 8.06127 9.37353 8.24874C7.78003 9.1236 6.98327 10.2797 6.98327 11.717V13.9666H-3.03686e-05V11.4826C-3.03686e-05 10.764 0.42178 10.1235 1.2654 9.56104C2.14027 8.99862 3.09325 8.59244 4.12434 8.34247C5.15543 8.09251 6.10841 7.96753 6.98327 7.96753ZM10.8733 9.74851C12.1231 9.24858 13.3261 8.99862 14.4821 8.99862C15.6382 8.99862 16.8411 9.24858 18.0909 9.74851C19.3408 10.2484 19.9657 10.9046 19.9657 11.717V13.9666H8.99859V11.717C8.99859 10.9046 9.62349 10.2484 10.8733 9.74851ZM9.09233 5.10859C8.49867 5.70225 7.79565 5.99908 6.98327 5.99908C6.1709 5.99908 5.46788 5.70225 4.87422 5.10859C4.28056 4.51494 3.98373 3.81192 3.98373 2.99954C3.98373 2.18717 4.28056 1.48415 4.87422 0.890491C5.46788 0.296832 6.1709 2.05636e-06 6.98327 2.05636e-06C7.79565 2.05636e-06 8.49867 0.296832 9.09233 0.890491C9.68599 1.48415 9.98281 2.18717 9.98281 2.99954C9.98281 3.81192 9.68599 4.51494 9.09233 5.10859ZM16.2162 6.28029C15.7476 6.74897 15.1695 6.98331 14.4821 6.98331C13.7947 6.98331 13.2011 6.74897 12.7011 6.28029C12.2325 5.78037 11.9981 5.18671 11.9981 4.49931C11.9981 3.81192 12.2325 3.21826 12.7011 2.71834C13.2011 2.21841 13.7947 1.96845 14.4821 1.96845C15.1695 1.96845 15.7476 2.21841 16.2162 2.71834C16.7162 3.21826 16.9661 3.81192 16.9661 4.49931C16.9661 5.18671 16.7162 5.78037 16.2162 6.28029Z" fill="white" fill-opacity="0.87"/>
</svg>
