<svg width="17" height="20" viewBox="0 0 17 20" fill="none" xmlns="http://www.w3.org/2000/svg">
<path d="M11.9983 14.529V8.52994C11.9983 7.24889 11.639 6.18655 10.9203 5.34293C10.2017 4.46807 9.23308 4.03063 8.01452 4.03063C6.79596 4.03063 5.82735 4.46807 5.10871 5.34293C4.39007 6.18655 4.03075 7.24889 4.03075 8.52994V14.529H11.9983ZM14.0136 13.4979L16.0289 15.5132V16.4975H0.000121921V15.5132L2.01544 13.4979V8.52994C2.01544 6.96768 2.406 5.60852 3.18713 4.45244C3.99951 3.29637 5.10871 2.54649 6.51475 2.20279V1.49977C6.51475 1.09358 6.65535 0.749886 6.93656 0.468679C7.21777 0.156227 7.57709 8.04663e-07 8.01452 8.04663e-07C8.45195 8.04663e-07 8.81127 0.156227 9.09248 0.468679C9.37369 0.749886 9.51429 1.09358 9.51429 1.49977V2.20279C10.9203 2.54649 12.0139 3.29637 12.795 4.45244C13.6074 5.60852 14.0136 6.96768 14.0136 8.52994V13.4979ZM9.42055 18.9346C9.01437 19.3095 8.54569 19.497 8.01452 19.497C7.48335 19.497 7.01467 19.3095 6.60848 18.9346C6.2023 18.5284 5.9992 18.0597 5.9992 17.5286H10.0298C10.0298 18.0597 9.82674 18.5284 9.42055 18.9346Z" fill="black" fill-opacity="0.87"/>
</svg>
