<svg width="13" height="18" viewBox="0 0 13 18" fill="none" xmlns="http://www.w3.org/2000/svg">
<path d="M7.21774 8.01439C7.7489 8.01439 8.20196 7.8113 8.5769 7.40511C8.98309 6.99893 9.18618 6.53025 9.18618 5.99908C9.18618 5.46791 8.98309 4.99923 8.5769 4.59304C8.20196 4.18686 7.7489 3.98376 7.21774 3.98376H3.98386V8.01439H7.21774ZM6.9834 -1.90735e-06C8.63939 -1.90735e-06 10.0454 0.593657 11.2015 1.78098C12.3888 2.93705 12.9825 4.34308 12.9825 5.99908C12.9825 7.65507 12.3888 9.07673 11.2015 10.2641C10.0454 11.4201 8.63939 11.9982 6.9834 11.9982H3.98386V17.9972H9.15527e-05V-1.90735e-06H6.9834Z" fill="white" fill-opacity="0.87"/>
</svg>
