<svg width="24" height="24" viewBox="0 0 24 24" fill="none" xmlns="http://www.w3.org/2000/svg">
<path fill-rule="evenodd" clip-rule="evenodd" d="M2.5 0C1.83745 0.00158443 1.20248 0.265485 0.733983 0.733983C0.265485 1.20248 0.00158443 1.83745 0 2.5V13.7C0 15.076 1.124 16.2 2.5 16.2H8.955C8.47237 15.6604 8.15623 14.9927 8.04474 14.2774C7.93325 13.5621 8.03118 12.8299 8.32671 12.169C8.62224 11.5082 9.10273 10.947 9.71018 10.5532C10.3176 10.1594 11.0261 9.94991 11.75 9.94991C12.4739 9.94991 13.1824 10.1594 13.7898 10.5532C14.3973 10.947 14.8778 11.5082 15.1733 12.169C15.4688 12.8299 15.5668 13.5621 15.4553 14.2774C15.3438 14.9927 15.0276 15.6604 14.545 16.2H21C22.376 16.2 23.5 15.076 23.5 13.7V2.5C23.5 1.124 22.376 0 21 0H2.5ZM3.75 3.125C3.58424 3.125 3.42527 3.19085 3.30806 3.30806C3.19085 3.42527 3.125 3.58424 3.125 3.75C3.125 3.91576 3.19085 4.07473 3.30806 4.19194C3.42527 4.30915 3.58424 4.375 3.75 4.375H11.75C11.9158 4.375 12.0747 4.30915 12.1919 4.19194C12.3092 4.07473 12.375 3.91576 12.375 3.75C12.375 3.58424 12.3092 3.42527 12.1919 3.30806C12.0747 3.19085 11.9158 3.125 11.75 3.125H3.75ZM18.125 3.75C18.125 3.405 18.405 3.125 18.75 3.125H20.25C20.4158 3.125 20.5747 3.19085 20.6919 3.30806C20.8092 3.42527 20.875 3.58424 20.875 3.75C20.875 3.91576 20.8092 4.07473 20.6919 4.19194C20.5747 4.30915 20.4158 4.375 20.25 4.375H18.75C18.5842 4.375 18.4253 4.30915 18.3081 4.19194C18.1908 4.07473 18.125 3.91576 18.125 3.75ZM18.75 6.125C18.5842 6.125 18.4253 6.19085 18.3081 6.30806C18.1908 6.42527 18.125 6.58424 18.125 6.75C18.125 6.91576 18.1908 7.07473 18.3081 7.19194C18.4253 7.30915 18.5842 7.375 18.75 7.375H20.25C20.4158 7.375 20.5747 7.30915 20.6919 7.19194C20.8092 7.07473 20.875 6.91576 20.875 6.75C20.875 6.58424 20.8092 6.42527 20.6919 6.30806C20.5747 6.19085 20.4158 6.125 20.25 6.125H18.75ZM9.25 13.7C9.25013 13.2493 9.37209 12.807 9.60298 12.42C9.83387 12.0329 10.1651 11.7155 10.5616 11.5012C10.9581 11.287 11.4052 11.1839 11.8555 11.2029C12.3058 11.222 12.7426 11.3623 13.1196 11.6093C13.4966 11.8562 13.7999 12.2004 13.9974 12.6056C14.1948 13.0107 14.279 13.4617 14.2412 13.9108C14.2033 14.3599 14.0447 14.7904 13.7822 15.1568C13.5197 15.5231 13.1631 15.8117 12.75 15.992V19.3H10.75V15.992C10.3041 15.7974 9.9246 15.4768 9.65815 15.0697C9.39171 14.6626 9.24986 14.1866 9.25 13.7ZM7.25 20.55C6.35 20.55 5.65 21.15 5.35 21.95L4.97 23.092C4.94498 23.1671 4.93816 23.2471 4.9501 23.3254C4.96204 23.4037 4.9924 23.478 5.03868 23.5422C5.08497 23.6065 5.14585 23.6588 5.21631 23.695C5.28678 23.7311 5.36482 23.7499 5.444 23.75H18.056C18.1353 23.7501 18.2134 23.7313 18.284 23.6953C18.3546 23.6592 18.4156 23.6069 18.462 23.5427C18.5084 23.4784 18.5389 23.404 18.5509 23.3256C18.5629 23.2473 18.556 23.1672 18.531 23.092L18.15 21.95C17.95 21.15 17.15 20.55 16.25 20.55H7.25Z" fill="white"/>
</svg>
