<svg width="23" height="23" viewBox="0 0 23 23" fill="none" xmlns="http://www.w3.org/2000/svg">
<path fill-rule="evenodd" clip-rule="evenodd" d="M14.1316 0C13.6868 0 13.2602 0.176692 12.9457 0.491206C12.6312 0.80572 12.4545 1.23229 12.4545 1.67708V5.98958C12.4545 6.91533 13.2058 7.66667 14.1316 7.66667H21.3191C21.7639 7.66667 22.1904 7.48997 22.505 7.17546C22.8195 6.86095 22.9962 6.43437 22.9962 5.98958V1.67708C22.9962 1.23229 22.8195 0.80572 22.505 0.491206C22.1904 0.176692 21.7639 0 21.3191 0L14.1316 0ZM14.1316 9.58333C13.6868 9.58333 13.2602 9.76003 12.9457 10.0745C12.6312 10.3891 12.4545 10.8156 12.4545 11.2604V21.3229C12.4545 22.2496 13.2058 23 14.1316 23H21.3191C21.7639 23 22.1904 22.8233 22.505 22.5088C22.8195 22.1943 22.9962 21.7677 22.9962 21.3229V11.2604C22.9962 10.8156 22.8195 10.3891 22.505 10.0745C22.1904 9.76003 21.7639 9.58333 21.3191 9.58333H14.1316ZM0 1.67708C0 0.751333 0.750375 0 1.67708 0H8.86458C9.79033 0 10.5417 0.751333 10.5417 1.67708V11.7396C10.5417 12.1844 10.365 12.6109 10.0505 12.9255C9.73595 13.24 9.30937 13.4167 8.86458 13.4167H1.67708C1.23229 13.4167 0.805721 13.24 0.491206 12.9255C0.176692 12.6109 0 12.1844 0 11.7396V1.67708ZM1.67708 15.3333C1.23229 15.3333 0.805721 15.51 0.491206 15.8245C0.176692 16.1391 0 16.5656 0 17.0104V21.3229C0 22.2487 0.750375 23 1.67708 23H8.86458C9.30937 23 9.73595 22.8233 10.0505 22.5088C10.365 22.1943 10.5417 21.7677 10.5417 21.3229V17.0104C10.5417 16.5656 10.365 16.1391 10.0505 15.8245C9.73595 15.51 9.30937 15.3333 8.86458 15.3333H1.67708Z" fill="white"/>
</svg>
